<?xml version="1.0" standalone="no"?>
<!DOCTYPE svg PUBLIC "-//W3C//DTD SVG 20010904//EN"
 "http://www.w3.org/TR/2001/REC-SVG-20010904/DTD/svg10.dtd">
<svg version="1.0" xmlns="http://www.w3.org/2000/svg"
 width="808.000000pt" height="807.000000pt" viewBox="0 0 808.000000 807.000000"
 preserveAspectRatio="xMidYMid meet">
<metadata>
Created by potrace 1.16, written by Peter Selinger 2001-2019
</metadata>
<g transform="translate(0.000000,807.000000) scale(0.100000,-0.100000)"
fill="#000000" stroke="none">
<path d="M3960 6496 c-306 -64 -563 -263 -700 -541 -79 -159 -95 -236 -95
-445 0 -151 3 -187 23 -260 52 -195 183 -396 340 -521 90 -72 229 -149 317
-174 l55 -16 0 -1360 0 -1359 250 0 250 0 2 1356 3 1356 80 27 c247 83 458
269 575 506 79 159 95 236 95 445 0 209 -16 286 -95 445 -125 253 -367 453
-635 526 -102 27 -364 36 -465 15z m293 -491 c76 -10 195 -75 260 -144 186
-195 186 -488 0 -682 -237 -249 -650 -180 -798 134 -115 241 -14 528 230 648
78 39 173 60 235 53 14 -2 46 -6 73 -9z"/>
<path d="M1480 6475 c-506 -93 -917 -507 -1005 -1014 -13 -71 -15 -345 -15
-1857 l0 -1774 250 0 249 0 3 1758 3 1757 22 78 c96 336 383 558 723 558 340
0 627 -222 723 -558 l22 -78 3 -1757 3 -1758 249 0 250 0 0 1774 c0 1512 -2
1786 -15 1857 -89 511 -503 925 -1014 1014 -104 19 -349 18 -451 0z"/>
<path d="M5410 6230 l0 -250 415 0 415 0 0 -2085 0 -2085 250 0 250 0 0 2085
0 2085 435 0 435 0 0 250 0 250 -1100 0 -1100 0 0 -250z"/>
<path d="M1560 3561 c-89 -29 -141 -60 -206 -125 -100 -100 -144 -209 -144
-356 0 -147 44 -256 144 -356 100 -100 209 -144 356 -144 147 0 256 44 356
144 100 100 144 209 144 356 0 147 -44 256 -144 356 -101 101 -210 144 -360
143 -59 0 -111 -6 -146 -18z"/>
</g>
</svg>
